<?xml version="1.0" encoding="utf-8"?>
<!-- Generator: Adobe Illustrator 24.1.2, SVG Export Plug-In . SVG Version: 6.00 Build 0)  -->
<svg version="1.1"
	 id="Слой_1" image-rendering="optimizeQuality" shape-rendering="geometricPrecision" text-rendering="geometricPrecision"
	 xmlns="http://www.w3.org/2000/svg" xmlns:xlink="http://www.w3.org/1999/xlink" x="0px" y="0px" viewBox="0 0 5848 1613.3"
	 style="enable-background:new 0 0 5848 1613.3;" xml:space="preserve">
<style type="text/css">
	.st0{fill:#595850;}
	.st1{fill:#C2C0B4;}
	.st2{fill-rule:evenodd;clip-rule:evenodd;fill:#C2C0B4;}
</style>
<g id="Слой_x0020_1">
	<path class="st0" d="M1207.4,1071.3c0-22.9,3.2-42,9.7-58c6.7-15.7,15.7-28.6,27.3-38.3c11.7-9.7,25.4-16.7,40.8-21.2
		c15.7-4.2,32.3-6.5,50.2-6.5c17.2,0,33.3,2.2,48.5,6.5c15.4,4.5,28.8,11.4,40.5,21.2c11.7,9.7,20.9,22.6,27.6,38.3
		c7,15.9,10.2,35.1,10.2,58c0,21.9-3.2,40.5-10.2,56.2c-6.7,15.4-15.9,28.3-27.6,38.6c-11.7,10.2-25.1,17.7-40.5,22.1
		c-15.2,4.7-31.3,7-48.5,7c-17.9,0-34.6-2.2-50.2-7c-15.4-4.5-29.1-11.9-40.8-22.1c-11.7-10.2-20.7-23.1-27.3-38.6
		C1210.6,1111.8,1207.4,1093.2,1207.4,1071.3L1207.4,1071.3z"/>
	<path class="st1" d="M715.2,1314.4c-52.1-51.6-82.3-123.8-82.3-205.3c0-84.7,28.6-155.1,76.2-204.9c49.5-51.8,119-81,197.9-81
		c75,0,133.5,27,174.3,71.2c43.7,47.3,66.2,113.8,66.2,187.1c0,17.2,0.1,41,0.1,41.3l0.3,24.1H782.2c5.8,33.3,20.1,59.3,39.8,78.2
		c27,26,64.9,39,105.7,39c76.7,0,132.1-51.8,132.3-52l22.2-20.3l14.8,26.2l39.5,70.2l9.2,16.3l-13.8,12.8
		c-0.2,0.2-80.9,77.8-210.1,77.8C837.6,1395.3,766.1,1364.8,715.2,1314.4L715.2,1314.4z M1622.6,1027.2l18.3-21.4l0.2-0.2
		L1787,839.3l7.9-9h174.8l-38.2,41.8L1745.6,1076l200.9,270.8l29.6,39.9h-168.4l-7.8-10.8l-152.2-211.2l-21.8,15.3v206.8h-141.8
		v-169.6c9.4-12.4,17.5-26.1,24.3-41.1c34.3-74.5,26.7-184.3-24.3-250.7v-306H1626v354.2l-0.1,1.5L1622.6,1027.2L1622.6,1027.2z
		 M2313.9,1367.6l5,19.1h111.7V1015c0-16.2-1.1-31.4-3.3-45.5c-2.2-14.4-5.6-27.7-10.3-40c-4.7-12.4-10.6-23.9-17.8-34.3l0,0
		c-7.4-10.7-15.9-20.2-25.6-28.4c-9.5-8.2-20.5-15.2-32.7-21.2c-11.9-5.8-24.9-10.5-39.1-14.1c-13.7-3.5-28.5-6.1-44.3-7.8
		c-15.8-1.7-32.6-2.5-50.1-2.5c-17.6,0-35,1.2-52.4,3.5c-17.1,2.3-33.8,5.8-50.1,10.5l0,0c-16.3,4.6-31.4,9.6-45.2,14.8
		c-14.6,5.6-28.4,11.6-41.5,18.2l-22.5,11.3l11.1,22l31.8,63.1l11.4,22.7l23.4-11.1c9.8-4.6,20.5-9.2,32-13.7
		c11.2-4.4,22.3-8.3,33-11.6c10.4-3.2,21.3-5.7,32.9-7.3c11.4-1.6,23.5-2.4,36.1-2.4c7.5,0,14.6,0.4,21.2,1.2
		c6.7,0.8,12.7,1.9,17.9,3.3v0c4.7,1.3,8.9,3,12.8,5.1c3.6,1.9,6.9,4.3,9.9,7c3.1,2.8,5.7,6,7.9,9.5c2.5,3.9,4.6,8.5,6.3,13.6
		c1.9,5.4,3.3,11.8,4.3,19c1,7.1,1.5,15.4,1.5,24.7v7.7l-66.4,2.3v0c-41.1,1.3-77.2,5.9-108.1,13.7c-32.4,8.2-59.6,19.9-81.3,35.3
		c-22.7,15.9-39.8,35.6-51.3,58.8c-11.4,22.9-17,48.8-17,77.7c0,14.2,1.2,27.6,3.4,40.2c2.3,12.8,5.9,24.9,10.7,36.2l-0.1,0
		c4.6,10.9,10.3,21.1,17,30.6c6.8,9.6,14.4,18.2,22.8,25.6c8.4,7.4,17.7,13.9,27.8,19.4c9.8,5.4,20.3,9.8,31.6,13.4l0,0.1
		c10.9,3.5,22.5,6.1,34.6,7.8c11.9,1.7,24.2,2.6,36.8,2.6c10.4,0,21-0.5,31.7-1.4l0,0.1c9.6-0.8,19.1-2.2,28.4-4l0,0
		c9.3-1.7,18-4,26.1-6.7l0,0c8.5-2.8,16.6-6.2,24.3-10c7.6-3.8,14.9-8.1,22-13c6.9-4.7,13.6-10,19.8-15.6c1.7-1.5,3.3-3.1,5-4.7
		L2313.9,1367.6L2313.9,1367.6z M2173,1277.8c-10.6,0-19.8-1.2-27.6-3.7c-7.2-2.3-13.6-5.6-19.1-10.1c-4.6-3.8-8.1-8.8-10.6-15.1
		c-2.9-7.4-4.3-16.7-4.3-28c0-6.5,0.5-12.4,1.5-17.7c1-5.5,2.5-10.5,4.4-15.1c1.6-3.8,3.9-7.5,6.9-11c3-3.6,6.6-7,10.9-10.1l0,0
		c4.5-3.2,9.8-6.1,16.1-8.7c6.6-2.8,14.3-5.3,23-7.4l0,0c9.5-2.3,19.9-4.1,31.3-5.5c11.6-1.4,24.5-2.4,38.8-3.1l43.9-1.9v19.3
		c0,11-0.8,21-2.3,29.9c-1.5,8.7-3.7,16.9-6.7,24.5c-2.9,7.4-6.4,14.1-10.3,20c-3.9,5.8-8.2,11-13.1,15.5l-0.1,0.1
		c-4.9,4.6-10.2,8.6-16,12c-5.9,3.5-12.3,6.4-19.1,8.7c-7.2,2.4-14.8,4.3-22.6,5.5C2190.3,1277.1,2182,1277.7,2173,1277.8
		L2173,1277.8z M3208.9,1367.6l-7-26.8c-1.7,1.6-3.4,3.2-5,4.7c-6.2,5.7-12.8,10.9-19.8,15.6c-7.1,4.8-14.4,9.2-22,13
		c-7.7,3.8-15.7,7.1-24.2,9.9c-8.3,2.7-17,5-26.1,6.7c-9.1,1.8-18.7,3.1-28.9,3.9c-9.8,0.8-20.3,1.3-31.4,1.3
		c-12.6,0-24.9-0.9-36.8-2.6h-0.1c-11.9-1.7-23.3-4.3-34.4-7.8c-11.2-3.5-21.7-8-31.7-13.4c-10.1-5.5-19.4-12-27.8-19.4
		c-8.4-7.4-16-16-22.8-25.6c-6.7-9.5-12.4-19.7-16.9-30.6c-4.7-11.1-8.2-23.2-10.6-36.2c-2.3-12.6-3.4-26-3.4-40.2
		c0-28.9,5.7-54.8,17.1-77.7c11.5-23.2,28.6-42.8,51.2-58.8c21.8-15.4,48.9-27.1,81.4-35.3c31-7.8,67.1-12.4,108.1-13.8l66.4-2.3
		v-7.7c0-9.3-0.5-17.6-1.5-24.7c-1-6.9-2.5-13.3-4.5-19l0.1,0c-1.8-5.1-3.9-9.6-6.3-13.5c-2.2-3.5-4.9-6.7-7.9-9.5
		c-3-2.8-6.3-5.1-9.9-7.1c-3.7-2-8.1-3.7-13-5.1c-5.3-1.5-11.2-2.6-17.5-3.3c-6.6-0.8-13.8-1.2-21.4-1.2c-12.6,0-24.7,0.8-36.1,2.4
		c-11.6,1.6-22.5,4.1-32.9,7.3c-10.7,3.3-21.7,7.2-32.9,11.6c-11.6,4.5-22.3,9.1-32.1,13.8l-23.4,11.1l-11.4-22.7l-31.8-63.1
		l-11.1-22l22.5-11.3c13-6.5,26.8-12.6,41.4-18.1c14-5.4,29.2-10.4,45.4-15c16.4-4.7,33.1-8.2,50.2-10.5c17.3-2.3,34.7-3.5,52.2-3.5
		c17.6,0,34.3,0.8,50.1,2.5c15.9,1.7,30.6,4.3,44.3,7.8c14.1,3.6,27.1,8.3,39,14.1c12.1,5.9,23.1,13,32.8,21.3
		c9.9,8.4,18.5,17.8,25.6,28.2l-0.1,0c7.2,10.4,13.2,21.9,17.9,34.4c4.6,12.2,8,25.6,10.3,40c2.2,14.1,3.3,29.3,3.3,45.5v371.7
		h-111.7L3208.9,1367.6L3208.9,1367.6z M3068,1277.8c9,0,17.3-0.6,25-1.8c7.9-1.2,15.4-3.1,22.6-5.5c6.7-2.3,13.1-5.2,19-8.7
		c5.8-3.4,11.2-7.5,16.2-12.2c4.8-4.5,9.2-9.7,13.1-15.5c3.9-5.9,7.4-12.6,10.3-20c3-7.6,5.2-15.7,6.7-24.5
		c1.5-8.9,2.3-18.9,2.3-29.9v-19.3l-43.9,1.9c-14.4,0.6-27.4,1.7-39.1,3.1c-11.3,1.4-21.6,3.2-31.1,5.5c-8.6,2.1-16.3,4.5-23,7.4
		c-6.3,2.7-11.7,5.6-16,8.8c-4.2,3-7.8,6.4-10.9,10.1c-2.9,3.5-5.2,7.2-6.8,11c-1.9,4.5-3.4,9.6-4.5,15.1h0
		c-1,5.2-1.5,11.1-1.5,17.7c0,11.3,1.4,20.7,4.3,28c2.4,6.2,5.9,11.3,10.6,15.1c5.5,4.5,11.9,7.9,19.1,10.1
		C3048.3,1276.5,3057.5,1277.8,3068,1277.8L3068,1277.8z M3514.8,1386.7h-116.7V619.3h142.8v767.4L3514.8,1386.7L3514.8,1386.7z
		 M4127.6,1107.6c0,22-1.5,43.1-4.5,63.2c-3,20.1-7.5,39.1-13.5,56.8c-6.1,17.8-13.5,34.4-22.3,49.6c-9,15.6-19.3,29.6-31,42
		c-11.6,12.4-24.6,23.4-38.9,33.2c-14.1,9.5-29.4,17.5-45.9,24c-16.6,6.5-34,11.4-52.3,14.7c-18.4,3.3-37.5,4.9-57.1,4.9
		c-18.7,0-36.8-1.7-54.3-4.9c-17.6-3.3-34.4-8.2-50.4-14.7c-16.2-6.5-31.3-14.6-45.4-24.1c-14-9.5-27-20.6-38.8-33
		c-11.7-12.3-22.1-26.3-31.4-41.8c-9-15.1-16.8-31.6-23.2-49.5c-6.5-18.1-11.3-37.2-14.5-57.1c-3.1-19.9-4.7-41-4.7-63.2
		c0-21.9,1.5-42.9,4.5-62.8c3-20.1,7.5-39,13.5-56.4c6.1-17.7,13.5-34,22.3-49.1c8.9-15.3,19.1-29.2,30.6-41.7
		c11.5-12.5,24.4-23.5,38.9-33.3c14.3-9.6,29.7-17.7,46.4-24.1c16.6-6.5,34.1-11.3,52.4-14.4c18.1-3.1,37.1-4.6,57-4.6
		c18.5,0,36.7,1.6,54.3,4.8c17.5,3.2,34.3,7.9,50.3,14.3c16.2,6.5,31.3,14.5,45.4,24c14.1,9.5,27,20.6,38.8,33.1
		c11.7,12.4,22.2,26.2,31.4,41.5c9,14.9,16.7,31.3,23.2,49.1c6.5,17.8,11.3,36.7,14.5,56.6C4126,1064.5,4127.5,1085.5,4127.6,1107.6
		L4127.6,1107.6z M3745.3,1107.6c0,30.4,2.6,56.6,7.8,78.7c4.9,21,12.2,38.3,21.8,52.1c8.6,12.3,19.9,21.5,33.9,27.7
		c14.9,6.5,33.2,9.8,55.1,9.8c21.9,0,40.3-3.3,55.1-9.8c13.9-6.1,25.1-15.3,33.6-27.6c9.4-13.6,16.6-30.9,21.4-52
		c5.1-22.1,7.7-48.4,7.7-78.9c0-30.3-2.6-56.5-7.8-78.5c-5-21-12.2-38.1-21.6-51.3c-8.6-12-19.9-21-33.9-27.1
		c-14.9-6.4-33.4-9.7-55.3-9.7c-22,0-40.4,3.2-55.3,9.7c-13.9,6-25.1,15-33.4,26.9c-9.3,13.2-16.4,30.4-21.3,51.4
		C3747.9,1051,3745.3,1077.2,3745.3,1107.6L3745.3,1107.6z M4675.5,855.5v74.1l-22.8,2.9l-58.8,7.5c1.9,4.1,3.7,8.4,5.3,12.8
		c3.7,9.8,6.5,20.3,8.4,31.5c1.9,11,2.8,22.3,2.8,33.8c0,13.1-1.1,25.8-3.4,38.1c-2.2,12.2-5.6,24.1-10.1,35.6
		c-4.6,11.7-10.4,22.7-17.4,32.8c-7,10.1-15.1,19.5-24.4,28c-9.2,8.4-19.5,15.9-30.9,22.5c-11.3,6.5-23.5,12.1-36.8,16.7
		c-13,4.6-27.2,8.1-42.6,10.4c-15.2,2.3-31,3.5-47.4,3.5c-3.2,0-12.3-0.2-21.5-0.4l-0.9,0c-4.1-0.1-8-0.3-11.7-0.6l-0.2,0
		c-2.4,1.5-4.7,3.1-7,4.6l0,0.1c-2.4,1.7-4.4,3.2-5.8,4.4c-1.6,1.4-3.3,3-4.9,4.8c-1.2,1.3-2.3,2.8-3.5,4.6
		c-1.2,1.8-2.2,3.8-3.2,5.8c-0.6,1.2-1,2.7-1.4,4.3c-0.4,1.7-0.5,3.6-0.5,5.7c0,1.8,0.2,3.3,0.5,4.3c0.1,0.3,0,0.3,0.1,0.4
		c0.6,0.8,1.3,1.5,2.1,2c0.9,0.7,2,1.2,3.3,1.8l0,0c2,0.8,4.4,1.5,7.2,2.1c3.2,0.7,6.4,1.2,9.8,1.6c4.2,0.4,8.5,0.7,12.8,0.9
		c3.6,0.2,8.1,0.3,13.7,0.3h87.6c16.5,0,32,1,46.4,3c14.7,2.1,28.2,5.2,40.4,9.3c12.1,4.1,23.2,9,33.3,14.7
		c10.4,5.9,19.8,12.6,28,20.1c8.1,7.4,15.2,15.7,21.2,24.6c6,8.9,10.9,18.6,14.6,29c3.5,9.7,6.1,19.7,7.7,29.8
		c1.8,10.6,2.6,21.1,2.6,31.5c0,15.2-1.5,29.7-4.6,43.7c-3.1,14.1-7.8,27.4-14.2,40.1c-6.4,12.7-14.5,24.5-24.3,35.3
		c-9.6,10.6-20.9,20.3-33.7,28.9c-12.8,8.6-27,16.1-42.6,22.4l0,0c-15,6.1-31.9,11.3-50.6,15.7c-18.2,4.3-37.9,7.5-59,9.6
		c-21.4,2.1-43.8,3.2-67.4,3.2c-18.3,0-35.9-0.9-52.6-2.6c-16.8-1.8-32.3-4.3-46.7-7.8c-14.7-3.6-28.3-8-40.6-13.2
		c-12.8-5.4-24.3-11.8-34.6-19c-10.4-7.3-19.6-15.4-27.6-24.4c-8-8.9-14.6-18.8-20.1-29.5c-5.4-10.6-9.4-21.8-12.1-33.3
		c-2.6-11.6-3.9-23.7-3.9-36.3c0-10.7,1-21,3-30.8c2-10,5.1-19.3,9.2-28.2c3.9-8.3,8.5-16.2,13.8-23.6c5.3-7.4,11.3-14.2,17.9-20.3
		c6.7-6.2,13.8-11.8,21.2-16.6c7.4-4.8,15.4-9.2,24-13l3.1-1.4c-1-1.3-2.1-2.7-3-4.1c-6-8.5-10.5-17.6-13.5-27.3
		c-3-9.6-4.5-19.7-4.5-30.2c0-11.9,1.8-23.2,5.2-33.7c3.5-10.7,8.9-20.7,16.1-29.9c6-7.8,13.6-15.4,22.6-22.8
		c-2.6-1.9-5.1-3.8-7.5-5.8c-6.8-5.6-13.2-11.7-19.1-18.3c-5.8-6.5-11.1-13.4-15.9-20.6c-4.7-7.2-8.9-14.7-12.6-22.6
		c-3.8-8.1-6.9-16.3-9.4-24.6c-2.5-8.3-4.4-16.9-5.8-25.8c-1.3-8.9-2.1-17.8-2.1-26.7c0-14.7,1.2-28.9,3.6-42.5
		c2.4-14,6-27.2,10.6-39.4c4.7-12.4,10.7-24,18-34.8c7.3-10.8,15.6-20.6,25.1-29.4c9.6-8.8,20.4-16.7,32.3-23.5
		c11.9-6.7,24.5-12.3,38.1-16.8c13.5-4.5,28.2-7.8,43.9-10.1c15.5-2.2,31.9-3.3,49.1-3.3c6.3,0,13,0.2,20.3,0.7
		c6.5,0.4,13.5,1.1,21.1,2.1c7,0.9,13.6,1.9,19.6,3.1c4.9,1,9.5,2,13.7,3.2h203.2L4675.5,855.5L4675.5,855.5z M4271.9,1444.4
		c0,4.2,0.4,8.1,1.1,11.7c0.8,3.7,1.8,7.1,3.2,10.2l0,0c1.3,2.9,2.9,5.5,4.9,7.9c2.2,2.6,4.8,5,7.9,7.2c3.3,2.4,7.4,4.7,12.3,6.8
		c5.1,2.2,11,4.2,17.7,5.9c6.9,1.8,14.6,3.1,23,3.9c8.7,0.9,18.8,1.3,30.2,1.3c29.3,0,54.7-2,76-6.1c20.2-3.8,36.6-9.4,49.2-16.7
		c11.5-6.6,20-14.4,25.4-23.4c5.3-8.8,7.9-19.2,7.9-31.3c0-6-0.4-11.1-1.1-15.2c-0.6-3.6-1.5-6.7-2.8-9.5c-0.9-1.9-1.9-3.6-3.2-4.9
		c-1.4-1.5-3.2-2.8-5.5-4.1c-2.8-1.6-6.3-2.9-10.3-4.1c-4.9-1.4-10.2-2.5-16.1-3.2c-6.6-0.8-14.2-1.5-22.8-1.9
		c-7.9-0.4-17.4-0.6-28.5-0.6h-87.7c-5.1,0-10.1,0.3-15,0.8c-4.8,0.5-10.3,1.4-16.3,2.5c-4.6,0.9-9,2.2-13,3.8
		c-4.3,1.7-8.4,3.8-12.1,6.2c-3.4,2.2-6.6,4.9-9.5,8.1c-3.1,3.3-5.8,7-8.2,11.1c-2.1,3.6-3.7,8.1-4.9,13.3
		C4272.6,1429.9,4271.9,1436.7,4271.9,1444.4L4271.9,1444.4z M4317.8,1018.1c0,15.1,1.8,27.9,5.4,38.4c3.2,9.3,7.8,16.8,13.7,22.6
		c6.2,6,13.8,10.4,22.7,13.5c9.8,3.3,21.4,4.9,35,4.9c13.8,0,25.6-1.6,35.3-4.9c8.6-2.9,15.8-7.2,21.4-12.8
		c5.7-5.7,10.1-13.3,13.1-22.9c3.4-10.8,5.2-24.2,5.2-40.1c0-16.5-1.8-30.5-5.4-42c-3.2-10.2-7.7-18.3-13.6-24.3
		c-5.9-6-13.2-10.6-21.9-13.7c-9.7-3.4-21.3-5.1-35-5.1c-13.3,0-24.7,1.8-34.3,5.3c-8.7,3.2-16.1,8-22.1,14.3
		c-6,6.3-10.7,14.7-13.9,25C4319.6,988,4317.8,1001.9,4317.8,1018.1L4317.8,1018.1z M2620.9,1361.9c-45.9-29.8-82.6-82.6-82.6-175.8
		V977h-65.1V852.3h68.1V693.9h140.5v158.4h120.4V977h-120.4v198.1c0,40.5,13.1,62.6,29.5,74.2c16.8,11.9,38.3,14.4,53.2,14.4
		c10.9,0,15.2-0.7,15.2-0.7l31.4-10.4v137.7l-19.2,3.8c0,0-16.6,2.4-38.2,2.4C2718.5,1396.6,2665.8,1391,2620.9,1361.9
		L2620.9,1361.9z M823.5,975.7c-14.7,12.8-26.4,30-34.1,51.1h209.7c-4.2-22.4-13-39.9-25-52.5H974c-17.2-18.2-41.8-27.1-69.1-27.1
		C873.3,947.2,844.9,957,823.5,975.7L823.5,975.7z"/>
	<circle class="st2" cx="5263.6" cy="521.4" r="486.9"/>
	<path class="st0" d="M5685.3,120.6c-51-42.3-110.7-72.7-178-92.3c-137.8-37.2-293.3-38.4-431,0c-67.3,19.6-125.9,50-176.9,92.3
		c-51,42.3-91.2,98.8-120.5,167.2c-59.6,136.1-60.5,362.2,0,498.3c29.3,67.3,69.5,123.7,120.5,168.3c107.4,93.7,248.8,127,388.6,127
		c78.2,0,150.9-9.8,219.3-30.4c26.1-7.6,51.1-17.1,74.9-28.6c-31.8,53.5-70.2,102.8-114,146.6c-40.5,40.5-85.6,76.3-134.5,106.6
		c111.6-36.7,211.7-99.3,293-180.6C5742.7,979,5820.5,825,5839.6,653.6C5865.5,470.5,5836,245.6,5685.3,120.6L5685.3,120.6z
		 M5549.2,661.1c17.5,0,31.7,14.2,31.7,31.7c0,17.5-14.2,31.7-31.7,31.7h-431.8c-21.8,0-38.3-4.4-50.4-12
		c-9.3-5.8-16-13.3-20.5-22.2c-4.4-8.6-6.4-17.7-6.4-27c0-19.1,8.5-39.9,20.6-59.4l12.3-19.7l-92.9-299.9l-0.2-0.8
		c-2.1-6-4-9.3-5.9-10.5c-2.5-1.6-8-2.1-16.1-2.1h-43c-17.5,0-31.7-14.2-31.7-31.7c0-17.5,14.2-31.7,31.7-31.7h43
		c19.6,0,35.6,3.1,50,12.3c14.4,9.2,24.5,22.8,31.7,43.4c0.3,0.8,0.6,1.7,0.9,2.6l0.1,0.2c10.4-2.6,22.3-3.6,35.8-3.6l438.5-0.8
		c22,0,41.2,4,57.1,12.2c17.6,9.1,30.8,22.8,39,41.2c7.5,16.9,10.8,36.5,11.8,56.9c0.9,18.4,0,37.2-1,54.9
		c-0.3,5.4-0.4,8.9-0.5,12.4c-0.7,23.3-1.4,44.3-16.4,68.7c-10.5,17.1-24.8,30.9-42.8,41.4c-16.8,9.8-36.6,16.5-59.5,20l0-0.1
		l-0.5,0.1l-376.9,51.3l-10.7,17.1c-5.4,8.6-9.4,16.6-10.6,22.6c3,0.7,7.4,1.1,13.5,1.1L5549.2,661.1L5549.2,661.1z M5188.4,326.1
		l78.4-0.9l3.5,211.1l-78.2,11.1L5188.4,326.1z M5167.6,550.8l-36.9,5l-67.5-225.9c-0.6-1.9-2-2.5-3.5-2.7l-0.4-1.2
		c3.1-0.3,9.2-0.4,17.2-0.4l87.4,0.6L5167.6,550.8L5167.6,550.8z M5291.3,325.2l74.6-0.1l3.3,198.2l-74.4,9.8L5291.3,325.2
		L5291.3,325.2z M5487,324.8l27.9,0c11.8,0,21.3,1.7,28.1,5.2c4.7,2.4,8.1,6,10.2,10.7c3.9,8.8,5.7,20.8,6.4,34
		c0.8,15.3,0,32.3-1,48.5c-0.2,3.6-0.4,8.8-0.5,13.9c-0.5,14.3-0.9,27-7.3,37.4c-5,8.2-11.9,14.8-20.5,19.8
		c-9.8,5.7-22.2,9.7-37.1,12l0,0.1l-3.2,0.4L5487,324.8L5487,324.8z M5465.6,510.2l-71.9,9.8l-3.2-195l72-0.1L5465.6,510.2
		L5465.6,510.2z M5463.9,750c23.8,0,45.4,9.7,61,25.3c15.6,15.6,25.3,37.2,25.3,61s-9.7,45.4-25.3,61c-15.6,15.6-37.2,25.3-61,25.3
		s-45.4-9.7-61-25.3c-15.6-15.6-25.3-37.2-25.3-61s9.7-45.4,25.3-61C5418.5,759.6,5440.1,750,5463.9,750z M5480.1,820.1
		c4.1,4.1,6.7,9.8,6.7,16.1c0,6.3-2.5,12-6.7,16.1c-4.1,4.1-9.8,6.7-16.1,6.7c-6.3,0-12-2.5-16.1-6.7c-4.1-4.1-6.7-9.8-6.7-16.1
		c0-6.3,2.6-12,6.7-16.1c4.1-4.1,9.8-6.7,16.1-6.7C5470.2,813.5,5475.9,816,5480.1,820.1z M5143.8,746.6c24,0,45.8,9.8,61.6,25.5
		c15.8,15.8,25.5,37.6,25.5,61.6s-9.8,45.9-25.5,61.6c-15.8,15.8-37.6,25.5-61.6,25.5c-24.1,0-45.9-9.8-61.6-25.5
		c-15.8-15.8-25.5-37.6-25.5-61.6s9.8-45.8,25.5-61.6C5098,756.3,5119.8,746.6,5143.8,746.6z M5160.6,817c4.3,4.3,6.9,10.2,6.9,16.7
		s-2.7,12.5-6.9,16.7c-4.3,4.3-10.2,6.9-16.7,6.9c-6.5,0-12.5-2.7-16.8-6.9c-4.3-4.3-7-10.2-7-16.7s2.7-12.5,7-16.7
		c4.3-4.3,10.2-7,16.8-7C5150.4,810,5156.3,812.7,5160.6,817z"/>
</g>
<rect x="100.1" y="570.7" class="st0" width="106.2" height="815.9"/>
<rect x="404.4" y="570.7" class="st0" width="110.3" height="815.9"/>
<rect x="100.1" y="926.3" class="st0" width="414.6" height="104.8"/>
</svg>
